<mxfile host="drawio-plugin" modified="2021-03-24T18:27:27.055Z" agent="5.0 (Windows NT 6.2; Win64; x64) AppleWebKit/537.36 (KHTML, like Gecko) Chrome/84.0.4147.105 Safari/537.36" etag="1yzWun1MBzxSO60wx3Ti" version="13.7.9" type="embed"><diagram id="NZ9sKhcNSwao_BG-Rnhz" name="Page-1"><mxGraphModel dx="464" dy="298" grid="1" gridSize="10" guides="1" tooltips="1" connect="1" arrows="1" fold="1" page="1" pageScale="1" pageWidth="850" pageHeight="1100" math="0" shadow="0"><root><mxCell id="0"/><mxCell id="1" parent="0"/><mxCell id="2" value="" style="rounded=0;whiteSpace=wrap;html=1;" parent="1" vertex="1"><mxGeometry x="10" y="60" width="2530" height="2330" as="geometry"/></mxCell><mxCell id="35" value="" style="rounded=0;whiteSpace=wrap;html=1;" parent="1" vertex="1"><mxGeometry x="45" y="220" width="1230" height="990" as="geometry"/></mxCell><mxCell id="3" value="Donjon&amp;amp;Dragon" style="shape=note;whiteSpace=wrap;html=1;backgroundOutline=1;darkOpacity=0.05;" parent="1" vertex="1"><mxGeometry x="10" y="20" width="180" height="40" as="geometry"/></mxCell><mxCell id="4" value="IRace" style="rounded=0;whiteSpace=wrap;html=1;" parent="1" vertex="1"><mxGeometry x="560" y="340" width="120" height="60" as="geometry"/></mxCell><mxCell id="5" value="ARace" style="rounded=0;whiteSpace=wrap;html=1;" parent="1" vertex="1"><mxGeometry x="560" y="450" width="120" height="60" as="geometry"/></mxCell><mxCell id="6" value="Humain" style="rounded=0;whiteSpace=wrap;html=1;" parent="1" vertex="1"><mxGeometry x="160" y="560" width="120" height="60" as="geometry"/></mxCell><mxCell id="7" value="Elfe" style="rounded=0;whiteSpace=wrap;html=1;" parent="1" vertex="1"><mxGeometry x="470" y="560" width="120" height="60" as="geometry"/></mxCell><mxCell id="8" value="ElfeNoire" style="rounded=0;whiteSpace=wrap;html=1;" parent="1" vertex="1"><mxGeometry x="760" y="560" width="120" height="60" as="geometry"/></mxCell><mxCell id="9" value="Nain" style="rounded=0;whiteSpace=wrap;html=1;" parent="1" vertex="1"><mxGeometry x="1050" y="560" width="120" height="60" as="geometry"/></mxCell><mxCell id="10" value="Chevalier" style="rounded=0;whiteSpace=wrap;html=1;" parent="1" vertex="1"><mxGeometry x="70" y="740" width="120" height="60" as="geometry"/></mxCell><mxCell id="11" value="Paladin" style="rounded=0;whiteSpace=wrap;html=1;" parent="1" vertex="1"><mxGeometry x="210" y="740" width="120" height="60" as="geometry"/></mxCell><mxCell id="12" value="Mage" style="rounded=0;whiteSpace=wrap;html=1;" parent="1" vertex="1"><mxGeometry x="770" y="740" width="120" height="60" as="geometry"/></mxCell><mxCell id="13" value="Archer" style="rounded=0;whiteSpace=wrap;html=1;" parent="1" vertex="1"><mxGeometry x="340" y="740" width="120" height="60" as="geometry"/></mxCell><mxCell id="14" value="Erudit" style="rounded=0;whiteSpace=wrap;html=1;" parent="1" vertex="1"><mxGeometry x="600" y="740" width="120" height="60" as="geometry"/></mxCell><mxCell id="15" value="Eclaireur" style="rounded=0;whiteSpace=wrap;html=1;" parent="1" vertex="1"><mxGeometry x="470" y="740" width="120" height="60" as="geometry"/></mxCell><mxCell id="16" value="Pyromancie" style="rounded=0;whiteSpace=wrap;html=1;" parent="1" vertex="1"><mxGeometry x="770" y="920" width="120" height="60" as="geometry"/></mxCell><mxCell id="17" value="Incantateur" style="rounded=0;whiteSpace=wrap;html=1;" parent="1" vertex="1"><mxGeometry x="630" y="920" width="120" height="60" as="geometry"/></mxCell><mxCell id="18" value="Necromancie" style="rounded=0;whiteSpace=wrap;html=1;" parent="1" vertex="1"><mxGeometry x="920" y="920" width="120" height="60" as="geometry"/></mxCell><mxCell id="19" value="Berserkeur" style="rounded=0;whiteSpace=wrap;html=1;" parent="1" vertex="1"><mxGeometry x="1050" y="740" width="120" height="60" as="geometry"/></mxCell><mxCell id="20" value="" style="edgeStyle=none;html=1;endSize=12;endArrow=block;endFill=0;dashed=1;exitX=0.5;exitY=0;exitDx=0;exitDy=0;entryX=0.5;entryY=1;entryDx=0;entryDy=0;" parent="1" source="5" target="4" edge="1"><mxGeometry width="160" relative="1" as="geometry"><mxPoint x="294" y="420" as="sourcePoint"/><mxPoint x="454" y="420" as="targetPoint"/></mxGeometry></mxCell><mxCell id="21" value="" style="edgeStyle=none;html=1;endSize=12;endArrow=block;endFill=0;exitX=0.5;exitY=0;exitDx=0;exitDy=0;entryX=0;entryY=1;entryDx=0;entryDy=0;" parent="1" source="6" target="5" edge="1"><mxGeometry width="160" relative="1" as="geometry"><mxPoint x="-60" y="410" as="sourcePoint"/><mxPoint x="100" y="410" as="targetPoint"/></mxGeometry></mxCell><mxCell id="22" value="" style="edgeStyle=none;html=1;endSize=12;endArrow=block;endFill=0;exitX=0.5;exitY=0;exitDx=0;exitDy=0;entryX=0.25;entryY=1;entryDx=0;entryDy=0;" parent="1" source="7" target="5" edge="1"><mxGeometry width="160" relative="1" as="geometry"><mxPoint x="290" y="570" as="sourcePoint"/><mxPoint x="640" y="520" as="targetPoint"/></mxGeometry></mxCell><mxCell id="23" value="" style="edgeStyle=none;html=1;endSize=12;endArrow=block;endFill=0;exitX=0.5;exitY=0;exitDx=0;exitDy=0;entryX=0.75;entryY=1;entryDx=0;entryDy=0;" parent="1" source="8" target="5" edge="1"><mxGeometry width="160" relative="1" as="geometry"><mxPoint x="300" y="580" as="sourcePoint"/><mxPoint x="650" y="530" as="targetPoint"/></mxGeometry></mxCell><mxCell id="24" value="" style="edgeStyle=none;html=1;endSize=12;endArrow=block;endFill=0;exitX=0.5;exitY=0;exitDx=0;exitDy=0;entryX=1;entryY=1;entryDx=0;entryDy=0;" parent="1" source="9" target="5" edge="1"><mxGeometry width="160" relative="1" as="geometry"><mxPoint x="310" y="590" as="sourcePoint"/><mxPoint x="660" y="540" as="targetPoint"/></mxGeometry></mxCell><mxCell id="25" value="" style="edgeStyle=none;html=1;endSize=12;endArrow=block;endFill=0;exitX=0.5;exitY=0;exitDx=0;exitDy=0;entryX=0.25;entryY=1;entryDx=0;entryDy=0;" parent="1" source="10" target="6" edge="1"><mxGeometry width="160" relative="1" as="geometry"><mxPoint x="320" y="600" as="sourcePoint"/><mxPoint x="670" y="550" as="targetPoint"/></mxGeometry></mxCell><mxCell id="26" value="" style="edgeStyle=none;html=1;endSize=12;endArrow=block;endFill=0;exitX=0.5;exitY=0;exitDx=0;exitDy=0;entryX=0.75;entryY=1;entryDx=0;entryDy=0;" parent="1" source="11" target="6" edge="1"><mxGeometry width="160" relative="1" as="geometry"><mxPoint x="330" y="610" as="sourcePoint"/><mxPoint x="680" y="560" as="targetPoint"/></mxGeometry></mxCell><mxCell id="27" value="" style="edgeStyle=none;html=1;endSize=12;endArrow=block;endFill=0;exitX=0.5;exitY=0;exitDx=0;exitDy=0;entryX=0.25;entryY=1;entryDx=0;entryDy=0;" parent="1" source="13" target="7" edge="1"><mxGeometry width="160" relative="1" as="geometry"><mxPoint x="340" y="620" as="sourcePoint"/><mxPoint x="690" y="570" as="targetPoint"/></mxGeometry></mxCell><mxCell id="28" value="" style="edgeStyle=none;html=1;endSize=12;endArrow=block;endFill=0;exitX=0.5;exitY=0;exitDx=0;exitDy=0;" parent="1" source="15" target="7" edge="1"><mxGeometry width="160" relative="1" as="geometry"><mxPoint x="350" y="630" as="sourcePoint"/><mxPoint x="700" y="580" as="targetPoint"/></mxGeometry></mxCell><mxCell id="29" value="" style="edgeStyle=none;html=1;endSize=12;endArrow=block;endFill=0;exitX=0.5;exitY=0;exitDx=0;exitDy=0;entryX=0.75;entryY=1;entryDx=0;entryDy=0;" parent="1" source="14" target="7" edge="1"><mxGeometry width="160" relative="1" as="geometry"><mxPoint x="360" y="640" as="sourcePoint"/><mxPoint x="710" y="590" as="targetPoint"/></mxGeometry></mxCell><mxCell id="30" value="" style="edgeStyle=none;html=1;endSize=12;endArrow=block;endFill=0;exitX=0.5;exitY=0;exitDx=0;exitDy=0;entryX=0.5;entryY=1;entryDx=0;entryDy=0;" parent="1" source="12" target="8" edge="1"><mxGeometry width="160" relative="1" as="geometry"><mxPoint x="370" y="650" as="sourcePoint"/><mxPoint x="720" y="600" as="targetPoint"/></mxGeometry></mxCell><mxCell id="31" value="" style="edgeStyle=none;html=1;endSize=12;endArrow=block;endFill=0;exitX=0.5;exitY=0;exitDx=0;exitDy=0;entryX=0.5;entryY=1;entryDx=0;entryDy=0;" parent="1" source="19" target="9" edge="1"><mxGeometry width="160" relative="1" as="geometry"><mxPoint x="380" y="660" as="sourcePoint"/><mxPoint x="730" y="610" as="targetPoint"/></mxGeometry></mxCell><mxCell id="32" value="" style="edgeStyle=none;html=1;endSize=12;endArrow=block;endFill=0;exitX=0.5;exitY=0;exitDx=0;exitDy=0;entryX=0.25;entryY=1;entryDx=0;entryDy=0;" parent="1" source="17" target="12" edge="1"><mxGeometry width="160" relative="1" as="geometry"><mxPoint x="390" y="670" as="sourcePoint"/><mxPoint x="740" y="620" as="targetPoint"/></mxGeometry></mxCell><mxCell id="33" value="" style="edgeStyle=none;html=1;endSize=12;endArrow=block;endFill=0;exitX=0.5;exitY=0;exitDx=0;exitDy=0;entryX=0.5;entryY=1;entryDx=0;entryDy=0;" parent="1" source="16" target="12" edge="1"><mxGeometry width="160" relative="1" as="geometry"><mxPoint x="400" y="680" as="sourcePoint"/><mxPoint x="750" y="630" as="targetPoint"/></mxGeometry></mxCell><mxCell id="34" value="" style="edgeStyle=none;html=1;endSize=12;endArrow=block;endFill=0;exitX=0.5;exitY=0;exitDx=0;exitDy=0;entryX=0.75;entryY=1;entryDx=0;entryDy=0;" parent="1" source="18" target="12" edge="1"><mxGeometry width="160" relative="1" as="geometry"><mxPoint x="410" y="690" as="sourcePoint"/><mxPoint x="760" y="640" as="targetPoint"/></mxGeometry></mxCell><mxCell id="37" value="Personnage" style="shape=note;whiteSpace=wrap;html=1;backgroundOutline=1;darkOpacity=0.05;" parent="1" vertex="1"><mxGeometry x="45" y="180" width="180" height="40" as="geometry"/></mxCell><mxCell id="38" value="" style="rounded=0;whiteSpace=wrap;html=1;" vertex="1" parent="1"><mxGeometry x="45" y="1280" width="1405" height="530" as="geometry"/></mxCell><mxCell id="39" value="Sort" style="shape=note;whiteSpace=wrap;html=1;backgroundOutline=1;darkOpacity=0.05;" vertex="1" parent="1"><mxGeometry x="45" y="1240" width="180" height="40" as="geometry"/></mxCell><mxCell id="41" value="ISort" style="rounded=0;whiteSpace=wrap;html=1;" vertex="1" parent="1"><mxGeometry x="695" y="1320" width="120" height="60" as="geometry"/></mxCell><mxCell id="66" style="edgeStyle=orthogonalEdgeStyle;curved=0;rounded=1;sketch=0;orthogonalLoop=1;jettySize=auto;html=1;entryX=0;entryY=0.5;entryDx=0;entryDy=0;" edge="1" parent="1" source="42" target="63"><mxGeometry relative="1" as="geometry"><Array as="points"><mxPoint x="213" y="1470"/></Array></mxGeometry></mxCell><mxCell id="42" value="AFeu" style="rounded=0;whiteSpace=wrap;html=1;" vertex="1" parent="1"><mxGeometry x="152.5" y="1560" width="120" height="60" as="geometry"/></mxCell><mxCell id="67" style="edgeStyle=orthogonalEdgeStyle;curved=0;rounded=1;sketch=0;orthogonalLoop=1;jettySize=auto;html=1;exitX=0.5;exitY=0;exitDx=0;exitDy=0;entryX=0;entryY=1;entryDx=0;entryDy=0;" edge="1" parent="1" source="43" target="63"><mxGeometry relative="1" as="geometry"><Array as="points"><mxPoint x="485" y="1500"/></Array></mxGeometry></mxCell><mxCell id="43" value="AFoudre" style="rounded=0;whiteSpace=wrap;html=1;" vertex="1" parent="1"><mxGeometry x="425" y="1560" width="120" height="60" as="geometry"/></mxCell><mxCell id="44" value="ADivin" style="rounded=0;whiteSpace=wrap;html=1;" vertex="1" parent="1"><mxGeometry x="695" y="1560" width="120" height="60" as="geometry"/></mxCell><mxCell id="68" style="edgeStyle=orthogonalEdgeStyle;curved=0;rounded=1;sketch=0;orthogonalLoop=1;jettySize=auto;html=1;exitX=0.5;exitY=0;exitDx=0;exitDy=0;entryX=1;entryY=1;entryDx=0;entryDy=0;" edge="1" parent="1" source="45" target="63"><mxGeometry relative="1" as="geometry"><Array as="points"><mxPoint x="1023" y="1500"/></Array></mxGeometry></mxCell><mxCell id="45" value="AGlace" style="rounded=0;whiteSpace=wrap;html=1;" vertex="1" parent="1"><mxGeometry x="963" y="1560" width="120" height="60" as="geometry"/></mxCell><mxCell id="69" style="edgeStyle=orthogonalEdgeStyle;curved=0;rounded=1;sketch=0;orthogonalLoop=1;jettySize=auto;html=1;exitX=0.5;exitY=0;exitDx=0;exitDy=0;entryX=1;entryY=0.5;entryDx=0;entryDy=0;" edge="1" parent="1" source="46" target="63"><mxGeometry relative="1" as="geometry"/></mxCell><mxCell id="46" value="ATerre" style="rounded=0;whiteSpace=wrap;html=1;" vertex="1" parent="1"><mxGeometry x="1237.5" y="1560" width="120" height="60" as="geometry"/></mxCell><mxCell id="71" style="edgeStyle=orthogonalEdgeStyle;curved=0;rounded=1;sketch=0;orthogonalLoop=1;jettySize=auto;html=1;exitX=0.5;exitY=0;exitDx=0;exitDy=0;entryX=0;entryY=0.75;entryDx=0;entryDy=0;" edge="1" parent="1" source="47" target="12"><mxGeometry relative="1" as="geometry"><Array as="points"><mxPoint x="425" y="880"/><mxPoint x="700" y="880"/><mxPoint x="700" y="820"/><mxPoint x="760" y="820"/><mxPoint x="760" y="785"/></Array></mxGeometry></mxCell><mxCell id="47" value="MapSort" style="rounded=0;whiteSpace=wrap;html=1;sketch=0;" vertex="1" parent="1"><mxGeometry x="365" y="1320" width="120" height="60" as="geometry"/></mxCell><mxCell id="48" value="BouleDeFeu" style="rounded=0;whiteSpace=wrap;html=1;sketch=0;" vertex="1" parent="1"><mxGeometry x="152.5" y="1690" width="120" height="60" as="geometry"/></mxCell><mxCell id="49" value="Eclaire" style="rounded=0;whiteSpace=wrap;html=1;sketch=0;" vertex="1" parent="1"><mxGeometry x="422.5" y="1690" width="120" height="60" as="geometry"/></mxCell><mxCell id="50" value="PresenceDeDieu" style="rounded=0;whiteSpace=wrap;html=1;sketch=0;" vertex="1" parent="1"><mxGeometry x="695" y="1690" width="120" height="60" as="geometry"/></mxCell><mxCell id="51" value="PieuDeGlace" style="rounded=0;whiteSpace=wrap;html=1;sketch=0;" vertex="1" parent="1"><mxGeometry x="963" y="1690" width="120" height="60" as="geometry"/></mxCell><mxCell id="52" value="LancePierrre" style="rounded=0;whiteSpace=wrap;html=1;sketch=0;" vertex="1" parent="1"><mxGeometry x="1237.5" y="1690" width="120" height="60" as="geometry"/></mxCell><mxCell id="53" value="" style="endArrow=classic;html=1;exitX=0.5;exitY=0;exitDx=0;exitDy=0;entryX=0.5;entryY=1;entryDx=0;entryDy=0;" edge="1" parent="1" source="48" target="42"><mxGeometry width="50" height="50" relative="1" as="geometry"><mxPoint x="290" y="1880" as="sourcePoint"/><mxPoint x="340" y="1830" as="targetPoint"/></mxGeometry></mxCell><mxCell id="54" value="" style="endArrow=classic;html=1;exitX=0.5;exitY=0;exitDx=0;exitDy=0;entryX=0.5;entryY=1;entryDx=0;entryDy=0;" edge="1" parent="1"><mxGeometry width="50" height="50" relative="1" as="geometry"><mxPoint x="485" y="1690" as="sourcePoint"/><mxPoint x="485" y="1620" as="targetPoint"/></mxGeometry></mxCell><mxCell id="55" value="" style="endArrow=classic;html=1;exitX=0.5;exitY=0;exitDx=0;exitDy=0;entryX=0.5;entryY=1;entryDx=0;entryDy=0;" edge="1" parent="1"><mxGeometry width="50" height="50" relative="1" as="geometry"><mxPoint x="754.29" y="1690" as="sourcePoint"/><mxPoint x="754.29" y="1620" as="targetPoint"/></mxGeometry></mxCell><mxCell id="61" value="" style="endArrow=classic;html=1;exitX=0.5;exitY=0;exitDx=0;exitDy=0;entryX=0.5;entryY=1;entryDx=0;entryDy=0;" edge="1" parent="1"><mxGeometry width="50" height="50" relative="1" as="geometry"><mxPoint x="1021.79" y="1690" as="sourcePoint"/><mxPoint x="1021.79" y="1620" as="targetPoint"/></mxGeometry></mxCell><mxCell id="62" value="" style="endArrow=classic;html=1;exitX=0.5;exitY=0;exitDx=0;exitDy=0;entryX=0.5;entryY=1;entryDx=0;entryDy=0;" edge="1" parent="1"><mxGeometry width="50" height="50" relative="1" as="geometry"><mxPoint x="1296.79" y="1690" as="sourcePoint"/><mxPoint x="1296.79" y="1620" as="targetPoint"/></mxGeometry></mxCell><mxCell id="63" value="ASort" style="rounded=0;whiteSpace=wrap;html=1;sketch=0;" vertex="1" parent="1"><mxGeometry x="695" y="1440" width="120" height="60" as="geometry"/></mxCell><mxCell id="64" value="" style="endArrow=classic;html=1;dashed=1;dashPattern=1 1;entryX=0.5;entryY=1;entryDx=0;entryDy=0;exitX=0.5;exitY=0;exitDx=0;exitDy=0;" edge="1" parent="1" source="63" target="41"><mxGeometry width="50" height="50" relative="1" as="geometry"><mxPoint x="450" y="1520" as="sourcePoint"/><mxPoint x="500" y="1470" as="targetPoint"/></mxGeometry></mxCell><mxCell id="65" value="" style="endArrow=classic;html=1;exitX=0.5;exitY=0;exitDx=0;exitDy=0;entryX=0.5;entryY=1;entryDx=0;entryDy=0;" edge="1" parent="1" source="44" target="63"><mxGeometry width="50" height="50" relative="1" as="geometry"><mxPoint x="530" y="1510" as="sourcePoint"/><mxPoint x="580" y="1460" as="targetPoint"/></mxGeometry></mxCell><mxCell id="70" value="" style="endArrow=classic;html=1;exitX=0;exitY=0.5;exitDx=0;exitDy=0;entryX=1;entryY=0.5;entryDx=0;entryDy=0;" edge="1" parent="1" source="41" target="47"><mxGeometry width="50" height="50" relative="1" as="geometry"><mxPoint x="560" y="1370" as="sourcePoint"/><mxPoint x="610" y="1320" as="targetPoint"/></mxGeometry></mxCell></root></mxGraphModel></diagram></mxfile>